/* XPM */
static char *_ed4d956c48e4780a6c41eca81d229623U3nY3Ap7KQtXoPQ[] = {
/* columns rows colors chars-per-pixel */
"32 32 12 1 ",
"  c #36160A",
". c #3D2C11",
"X c #4D381C",
"o c #5E4522",
"O c #694B2E",
"+ c #70592B",
"@ c #78652B",
"# c #948465",
"$ c #A89C80",
"% c #BDB193",
"& c #C3C1A2",
"* c #D4C8AB",
/* pixels */
"oooooooooooooooooooooooooooooooo",
"o                              X",
"+#$$$$$$$$$$$$$Xo#$$$$$$$$$$$$$X",
"+#%%&%&********Xo#%%&%&********X",
"+#%&%&*********Xo#%&%&*********X",
"+#&%&*&********Xo#&%&*&********X",
"o#&************Xo#&************X",
"oX@@@@@@@@@@@@@XoXXo@o@@@@@@@@@X",
"oXoooooooooooooXoXoooooooooooooX",
"o#$$$$$$$$$$$$$Xo#$$$$$$$$$$$$$X",
"+#%%&%&********Xo#%%&%&********X",
"+#%&%&*********Xo#%&%&*********X",
"+#&%&*&********Xo#&%&*&********X",
"+#&************Xo#&************X",
"oXo@@@@@@@@@@@@XoXXo@o@@@@@@@@@X",
"oXoooooooooooooXoXoooooooooooooX",
"o#$$$$$$$$$$$$$Xo#$$$$$$$$$$$$$X",
"+#%%&%&********Xo#%%&%&********X",
"+#%&%&*********Xo#%&%&*********X",
"+#&%&*&********.o#&%&*&********X",
"o#&************Xo#&************X",
"ooooooooooooooo.oooooooooooooXoX",
"o...............o...............",
"o.XXXXXXXXXXXXX.o.XXXXXXXXXXXXX.",
"o.XooooooooooXX.o.XooooooooooXX.",
"o.oOOOOOOOOOOoX.o.oOOOOOOOOOOoX.",
"oXoOO+O+O+O+OoX.oXoOO+O+O+O+OoX.",
"o.oO+O+O+O+OOoX.o.oO+O+O+O+OOoX.",
"oXoOO+O+O+O+OoX.oXoOO+O+O+O+OoX.",
"oXoO+O+O+O+OOoX.oXoO+O+O+O+OOoX.",
"++@@@@@@@@@@@@++++@@@@@@@@@@@@++",
"oooooooooooooooooooooooooooooooo"
};
