/* XPM */
static char *_0db74b1098b43b5a33e8dd0d3845abejos7f6brsvcswqKU[] = {
/* columns rows colors chars-per-pixel */
"64 64 8 1 ",
"  c None",
". c #0B0E16",
"X c #1D2831",
"o c #2E3438",
"O c #384147",
"+ c #415052",
"@ c #445751",
"# c #526556",
/* pixels */
"  ............................................................  ",
"  ............................................................  ",
"..OOOOOO@@..OOOOOO@@OOOO####..######@@##OOOOOOOO@@..OOOOOO@@OO..",
"..OOOOOO@@..OOOOOO@@OOOO####..######@@##OOOOOOOO@@..OOOOOO@@OO..",
"..@@##@@##@@##..####OO##OO@@OOOO@@..OO@@OO@@##@@##@@##..####@@..",
"..@@##@@##@@##..####OO##OO@@OOOO@@..OO@@OO@@##@@##@@##..####@@..",
"................................................................",
"................................................................",
"..####@@..@@@@####@@@@..##########@@##############@@##########..",
"..####@@..@@@@####@@@@..##########@@##############@@##########..",
"..OOOO##++@@##@@@@##@@++##OOOOOO@@OOOO####OOOOOO@@OOOO##OOOO##..",
"..OOOO##++@@##@@@@##@@++##OOOOOO@@OOOO####OOOOOO@@OOOO##OOOO##..",
"..OOOO@@OO..@@@@@@@@..OOXX##@@##OOOOOOOOXX##@@##OOOOOOOOOOOO@@..",
"..OOOO@@OO..@@@@@@@@..OOXX##@@##OOOOOOOOXX##@@##OOOOOOOOOOOO@@..",
"..OOOOOO++..oo@@@@oo..++OOXXOOOOOO@@@@XXOOXXOOOOOO@@@@XXOO@@OO..",
"..OOOOOO++..oo@@@@oo..++OOXXOOOOOO@@@@XXOOXXOOOOOO@@@@XXOO@@OO..",
"..OOOOOOOO##..OOOO..##++@@OO####OO@@@@XX@@OO####OO@@@@XXOOOOOO..",
"..OOOOOOOO##..OOOO..##++@@OO####OO@@@@XX@@OO####OO@@@@XXOOOOOO..",
"..OO..OOooOO++OOOOOO++ooOOOOXXOOOOOOXXOOOOOOXXOOOOOOXXOO..OOOO..",
"..OO..OOooOO++OOOOOO++ooOOOOXXOOOOOOXXOOOOOOXXOOOOOOXXOO..OOOO..",
"....OO....##oo##oo##ooooXXOOXXXXXXOOXXXXXXOOXXXXXXOOXXXX....OO..",
"....OO....##oo##oo##ooooXXOOXXXXXXOOXXXXXXOOXXXXXXOOXXXX....OO..",
"............XX..XX........XX......XX......XX......XX............",
"............XX..XX........XX......XX......XX......XX............",
"..@@######@@####@@..##############@@######@@####@@..########@@..",
"..@@######@@####@@..##############@@######@@####@@..########@@..",
"..##OOOOOOOOXX##OOXX##OO##OOOOOO@@OOOO##OOOOXX##OOXX##OOOOOO##..",
"..##OOOOOOOOXX##OOXX##OO##OOOOOO@@OOOO##OOOOXX##OOXX##OOOOOO##..",
"..##OOOOOO##OOXX..OOOOOOXX##@@##OOOOOOOOOO##OOXX..OOOOOOOOOO##..",
"..##OOOOOO##OOXX..OOOOOOXX##@@##OOOOOOOOOO##OOXX..OOOOOOOOOO##..",
"..##OOOOOOOOOOOOXXOOOOOOOOXXOOOOOO@@@@XXOOOOOOOOXXOOOOOOOOOO##..",
"..##OOOOOOOOOOOOXXOOOOOOOOXXOOOOOO@@@@XXOOOOOOOOXXOOOOOOOOOO##..",
"..@@OOOOOOOO@@OOXXOO@@@@@@OO####OO@@@@XXOOOO@@OOXXOO@@@@OOOO@@..",
"..@@OOOOOOOO@@OOXXOO@@@@@@OO####OO@@@@XXOOOO@@OOXXOO@@@@OOOO@@..",
"..@@OO..OOOOOOXX..OO@@@@OOOOXXOOOOOOXXOOOOOOOOXX..OO@@@@..OO@@..",
"..@@OO..OOOOOOXX..OO@@@@OOOOXXOOOOOOXXOOOOOOOOXX..OO@@@@..OO@@..",
"..OO..OOXXXXXX..XXOOXXXXXXOOXXXXXXOOXXXXXXXXXX..XXOOXXXXOO..OO..",
"..OO..OOXXXXXX..XXOOXXXXXXOOXXXXXXOOXXXXXXXXXX..XXOOXXXXOO..OO..",
"  ................XX......XX......XX..............XX..........  ",
"  ................XX......XX......XX..............XX..........  ",
"..####@@..@@@@####@@@@....@@@@####@@@@....@@@@####@@@@..@@####..",
"..####@@..@@@@####@@@@....@@@@####@@@@....@@@@####@@@@..@@####..",
"..OOOO##++@@##@@@@##@@++++@@##@@@@##@@++++@@##@@@@##@@++##OOOO..",
"..OOOO##++@@##@@@@##@@++++@@##@@@@##@@++++@@##@@@@##@@++##OOOO..",
"..OOOO@@OO..@@@@@@@@..OOOO..@@@@@@@@..OOOO..@@@@@@@@..OO##OOOO..",
"..OOOO@@OO..@@@@@@@@..OOOO..@@@@@@@@..OOOO..@@@@@@@@..OO##OOOO..",
"..OOOOOO++..oo@@@@oo..++++..oo@@@@oo..++++..oo@@@@oo..++##OOOO..",
"..OOOOOO++..oo@@@@oo..++++..oo@@@@oo..++++..oo@@@@oo..++##OOOO..",
"..OOOOOOOO##..OOOO..##++OO##..OOOO..##++OO##..OOOO..##++@@OOOO..",
"..OOOOOOOO##..OOOO..##++OO##..OOOO..##++OO##..OOOO..##++@@OOOO..",
"..OO..OOooOO++OOOOOO++ooooOO++OOOOOO++ooooOO++OOOOOO++oo@@OO....",
"..OO..OOooOO++OOOOOO++ooooOO++OOOOOO++ooooOO++OOOOOO++oo@@OO....",
"....OO....##oo##oo##oooo..##oo##oo##oooo..##oo##oo##ooooOO..OO..",
"....OO....##oo##oo##oooo..##oo##oo##oooo..##oo##oo##ooooOO..OO..",
"............XX..XX..........XX..XX..........XX..XX..............",
"............XX..XX..........XX..XX..........XX..XX..............",
"................................................................",
"................................................................",
"..OOOO....OO@@OO..@@OOOOOO..OOOO@@OOOO..OO....OO@@..OOOOOO@@OO..",
"..OOOO....OO@@OO..@@OOOOOO..OOOO@@OOOO..OO....OO@@..OOOOOO@@OO..",
"..OO##@@######@@####@@OO##@@##@@##@@######OO##@@##@@##..####OO..",
"..OO##@@######@@####@@OO##@@##@@##@@######OO##@@##@@##..####OO..",
"  ............................................................  ",
"  ............................................................  "
};
