/* XPM */
static char *cf62e06829774ce3aaf56ca6021a9c59m3E0VUpDCBxDMMiG[] = {
/* columns rows colors chars-per-pixel */
"48 48 8 1 ",
"  c None",
". c #0D1119",
"X c #2E3438",
"o c #384147",
"O c #415052",
"+ c #526556",
"@ c #69816D",
"# c #729674",
/* pixels */
"    ..............  ..........................  ",
"    ..............  ..........................  ",
"  ..####@@..######..####@@######@@##..@@##@@@@..",
"  ..####@@..######..####@@######@@##..@@##@@@@..",
"..##++++++oo##++++##..##++++##++++++oo++++++##..",
"..##++++++oo##++++##..##++++##++++++oo++++++##..",
"..##++++..++++++++##oo##++++##++@@++++..++++##..",
"..##++++..++++++++##oo##++++##++@@++++..++++##..",
"..@@++++oo++++++++++++oo++++++++@@++++oo++++@@..",
"..@@++++oo++++++++++++oo++++++++@@++++oo++++@@..",
"..##++oo..++@@@@++oo@@oo++++@@@@++@@++..oo++@@..",
"..##++oo..++@@@@++oo@@oo++++@@@@++@@++..oo++@@..",
"..@@oo..oo++oooooooooo..oo++oooo++oo++oo..oooo..",
"..@@oo..oo++oooooooooo..oo++oooo++oo++oo..oooo..",
"..........oo..............oo........oo..........",
"..........oo..............oo........oo..........",
"..@@######++..####@@####@@..######..++######..  ",
"..@@######++..####@@####@@..######..++######..  ",
"..##++++##++oo++++##++++++oo##++++oo++##++++..  ",
"..##++++##++oo++++##++++++oo##++++oo++##++++..  ",
"..##++++##++..++++##++++..++++++++..++##++++##..",
"..##++++##++..++++##++++..++++++++..++##++++##..",
"..@@++++++++++oo++++++++oo++++++oo++++++++++@@..",
"..@@++++++++++oo++++++++oo++++++oo++++++++++@@..",
"..@@##++++++@@..++++@@++oo++@@@@..@@++++++##@@..",
"..@@##++++++@@..++++@@++oo++@@@@..@@++++++##@@..",
"..@@++oo##++@@oo++++++oo..++@@@@oo@@++##++++@@..",
"..@@++oo##++@@oo++++++oo..++@@@@oo@@++##++++@@..",
"  ..oooooo++++oooooooo..oo++oooooo++++oo++oo@@..",
"  ..oooooo++++oooooooo..oo++oooooo++++oo++oo@@..",
"  ........oooo............oo......oooo..oo......",
"  ........oooo............oo......oooo..oo......",
"..@@####@@..########@@##@@########@@##..@@++@@..",
"..@@####@@..########@@##@@########@@##..@@++@@..",
"..##++++++oo##++..@@OO####OO@@..++##++++oo++##..",
"..##++++++oo##++..@@OO####OO@@..++##++++oo++##..",
"..@@++++..++++++OO@@##@@####@@OO++##++++oo++@@..",
"..@@++++..++++++OO@@##@@####@@OO++##++++oo++@@..",
"..##++++oo++++++++..##++@@##..++++++++++..++++..",
"..##++++oo++++++++..##++@@##..++++++++++..++++..",
"..@@@@++oo++@@@@OO..XX####XX..OO++++@@..++++@@..",
"..@@@@++oo++@@@@OO..XX####XX..OO++++@@..++++@@..",
"..@@++oo..++@@@@++##..++++..##OO++++++oo++++@@..",
"..@@++oo..++@@@@++##..++++..##OO++++++oo++++@@..",
"..####..oo####oo..##++##XX##XXXXoo####..oo##..  ",
"..####..oo####oo..##++##XX##XXXXoo####..oo##..  ",
"  ........oo........  ..  ..  ..............    ",
"  ........oo........  ..  ..  ..............    "
};
