/* XPM */
static char *_ddf9b625b004233aeaec233856a6af515bEphzzYIqtPExT[] = {
/* columns rows colors chars-per-pixel */
"32 32 12 1 ",
"  c #22080A",
". c #2E0D0C",
"X c #371A17",
"o c #452226",
"O c #502922",
"+ c #5C3121",
"@ c #5E352D",
"# c #664839",
"$ c #A1957A",
"% c #A89C80",
"& c #BDB193",
"* c #D4C8AB",
/* pixels */
"o $$$$$$$$$$$$$$$$$$$$$$$$$$$$Oo",
"o %%%%%%%%%%%%%%%%%%%%%%%%%%%%Oo",
"o %&%&%&%&%&%&%&%&%&%&%&%&%&%&@o",
"o &&&&&&&&&&&&&&&&&&&&&&&&&&&&@o",
"o &*&*&*&*&*&*&*&*&*&*&*&*&*&*@o",
"o *&*&*&*&*&*&*&*&*&*&*&*&*&*&@o",
"o ****************************@o",
"o &*&*&*&*&*&*&*&*&*&*&*&*&*&*@o",
"o ****************************@o",
"o ****************************@o",
"o ****************************@o",
"o ****************************@o",
"o ****************************@o",
"oOOOOOOOOOOOOOOOOOOOOOOOOOOOOO@o",
"oooooooooooooooooooooooooooooo@o",
"oooooooooooooooooooooooooooooo@o",
"o                             Oo",
"o XX XXXXX XXXXX XXXXX XXXXX X@o",
"o Xo.XooXo.XooXo.XooXo.XooXo.XOo",
"o XO.XooXO.XooXO.XooXO.XooXO.X@o",
"o X+.XooX+.XooX+.XooX+.XooX+.X@o",
"o X+.XXXX+.XXXX+.XXXX+.XXXX+.X@o",
"o X+.XooX+.XooX+.XooX+.XooX+.X@o",
"o X+.XooX+.XooX+.XooX+.XooX+.X@o",
"o X+.XooX+.XooX+.XooX+.XooX+.XOo",
"o X+.XXXX+.XXXX+.XXXX+.XXXX+.XOo",
"o X+.XooX+.XooX+.XooX+.XooX+.XOo",
"o XO.XooXO.XooXO.XooXO.XooXO.XOo",
"o Xo.XooXo.XooXo.XooXo.XooXo.XOo",
"@O@@#######################@@O@O",
"oooooooooooooooooooooooooooooooo",
"oooooooooooooooooooooooooooooooo"
};
