/* XPM */
static char *f4217429eaa9453a96fb5b2574a19251SieLWalwUVllSIGc[] = {
/* columns rows colors chars-per-pixel */
"32 32 11 1 ",
"  c #36160A",
". c #3D2C11",
"X c #433119",
"o c #4D381C",
"O c #4D401F",
"+ c #5E4522",
"@ c #BA9961",
"# c #E5BD77",
"$ c #EBCB7A",
"% c #ECD093",
"& c #F0DAAD",
/* pixels */
"+oo.........................ooo+",
"o@@@@@@@.@@@@@@@@@@@@@.@@@@@@@@o",
"o@######.@############.@#######o",
"...............................o",
".@@@@@@@o@@@@@@@@@@@@@o@@@@@@@@.",
".@$#$#$#.@#$#$#$#$#$#$.@$#$#$#$.",
".@#$#$#$o@$#$#$#$$$#$$o@#$#$#$#.",
".@$#$#$#o@#$#$#$#$$$$$o@$#$#$#$.",
".@#$#$#$+@$#$#$#$#$$$$+@#$#$#$$.",
".@$#$#$$o@#$#$#$#$$$$$o@$#$#$$$.",
".@#$#$#$+@$#$#$$$$$$$%+@#$#$#$$.",
".@$#$$$$+@#$#$#$$$$$$$+@$#$$$$$.",
".@#$#$$%+@$$$$$$$$$%$%+@#$#$%$%.",
".@$#$$%$+@$$#$$$$$%$&%+@$#$$$&$.",
".@#$$&$%+@$#$$$$$%$&%%+@#$$$&$%.",
".@$$&$%&+@#$$$$$%$&%&%+@$$$&$&%.",
".@$%$%&%o@$$$$$$$%%%%%o@$$%$%%%.",
"..o+++o....o++++++++o...o++++o..",
".@@@@@@@.@@@@@@@@@@@@@.@@@@@@@@.",
".@######.@############.@#######.",
"+o............................o+",
"o.oo+++++++++++++++++++++++++o.o",
".                              .",
". ............................ .",
". XoXoooXXoXoooXoooXXoXooOOoXO .",
". .XooOOooXOOoXXXoOoOOoXXooOo. .",
". XXXXXXXXooXXoooXooXXXooXX.XX .",
". .oOOOooOoXXooOOoXXoOOooOoOO. .",
". .XXXXoooOOoXXXXoXooo..XoXooo .",
". .XoOOoXXXoX.ooOOo.XXXoXXXXX. .",
". ..X..X...X..XXXX.XX..X...... .",
".++++++++++++++++++++++++++++++."
};
