/* XPM */
static char *_9c34d1fedf44053a8ccc1cb4ec72201PGHQ0BLBnGihuQpY[] = {
/* columns rows colors chars-per-pixel */
"64 64 67 1 ",
"  c None",
". c #ED4C11",
"X c #130215",
"o c #CC342E",
"O c #FF8601",
"+ c #FFCE38",
"@ c #FEF9ED",
"# c #EF4A17",
"$ c #130217",
"% c #C1987A",
"& c #F4E3A2",
"* c #F8F8DA",
"= c #4D4358",
"- c #5B1932",
"; c #1E0417",
": c #C05539",
"> c #6A2533",
", c #66142F",
"< c #7B2C37",
"1 c #CD5827",
"2 c #F9A93A",
"3 c #B85733",
"4 c #170416",
"5 c #F2B85D",
"6 c #DF9834",
"7 c #ECE3AD",
"8 c #D09E6F",
"9 c #5A4F5A",
"0 c #574B64",
"q c #544F61",
"w c #D39D78",
"e c #584F62",
"r c #433950",
"t c #632034",
"y c #3E081F",
"u c #FAB831",
"i c #B6552C",
"p c #892E31",
"a c #B1542B",
"s c #621D33",
"d c #3F0B20",
"f c #D17724",
"g c #B8542B",
"h c #140115",
"j c #F6B448",
"k c #B34F2C",
"l c #5F1A2D",
"z c #6D2538",
"x c #340922",
"c c #5A172C",
"v c #631D2A",
"b c #C05C2D",
"n c #3C061A",
"m c #52192F",
"M c #E4EBE9",
"N c #FBFADD",
"B c #EFD095",
"V c #555168",
"C c #4C475B",
"Z c #5A5765",
"A c #F0D49D",
"S c #CB9D78",
"D c #C69475",
"F c #4B4152",
"G c #5F1F34",
"H c #4F1932",
"J c white",
/* pixels */
"                                                                ",
"                                                                ",
"                                                                ",
"                                                                ",
"                                                                ",
"                                                                ",
"                                                                ",
"                                                                ",
"                                                                ",
"                     .                                          ",
"                       X                                        ",
"                       X .                                      ",
"                      Xo                                        ",
"                      XoX                                       ",
"                      XoX   .   XO                              ",
"                      Xo.X  XO   X.                             ",
"                      XoOoX  XX                                 ",
"                      Xo.OoXXXXX                                ",
"                      XX.Oo.ooooXX                              ",
"                       XoOO+O+OooXX  O                          ",
"                       XXoO++++OooX OX                          ",
"                      O XX.++@++OoX                             ",
"                     X XoOoO@@++OOXX                            ",
"                     O XoOOOO@@++OOoX                           ",
"                     X  XoO+O+@@++OoX                           ",
"                        Xo+++@@@@++.X                           ",
"                        Xo+@@@@@@@+.X                           ",
"                       Xo#O@@@@+O@+.X                           ",
"                        Xo.o+@++O+.X                            ",
"                         XXoo+++OOX                             ",
"                          XXXXXXXXX                             ",
"                        $%&*****&&%$                            ",
"                        $==%&*%%&==$                            ",
"                         $$$$$$$$$$$                            ",
"                         $-;:>>:,;-$                            ",
"                         $<12;3;2<-$                            ",
"                         $$$32;31$$$                            ",
"                          $-4-564-$                             ",
"                           $$$$$$$                              ",
"                           $78980$                              ",
"                           $q8wer$                              ",
"                            $$$$$                               ",
"                            $tty$                               ",
"                            $uip$                               ",
"                            $asd$                               ",
"                            $fgh$                               ",
"                            $jkl$                               ",
"                            $zxc$                               ",
"                            $vbn$                               ",
"                            $vbm$                               ",
"                           $MNBVC$                              ",
"                           $ZASDF$                              ",
"                           $$GGH$$                              ",
"                            $$G$$                               ",
"                             $$$                                ",
"                                                                ",
"                                                                ",
"                                                                ",
"                                                                ",
"                                                                ",
"                                                                ",
"                                                                ",
"                                                                ",
"                                                                "
};
