/* XPM */
static char *_8ddfb5b53e640d5d9262e351b3cfb2fdtxow4tiBxRdcWN2[] = {
/* columns rows colors chars-per-pixel */
"64 64 66 1 ",
"  c None",
". c #ED4C11",
"X c #130215",
"o c #CC342E",
"O c #FF8601",
"+ c #FEF9ED",
"@ c #FFCE38",
"# c #130217",
"$ c #C1987A",
"% c #F4E3A2",
"& c #F8F8DA",
"* c #4D4358",
"= c #5B1932",
"- c #1E0417",
"; c #C05539",
": c #6A2533",
"> c #66142F",
", c #7B2C37",
"< c #CD5827",
"1 c #F9A93A",
"2 c #B85733",
"3 c #170416",
"4 c #F2B85D",
"5 c #DF9834",
"6 c #ECE3AD",
"7 c #D09E6F",
"8 c #5A4F5A",
"9 c #574B64",
"0 c #544F61",
"q c #D39D78",
"w c #584F62",
"e c #433950",
"r c #632034",
"t c #3E081F",
"y c #FAB831",
"u c #B6552C",
"i c #892E31",
"p c #B1542B",
"a c #621D33",
"s c #3F0B20",
"d c #D17724",
"f c #B8542B",
"g c #140115",
"h c #F6B448",
"j c #B34F2C",
"k c #5F1A2D",
"l c #6D2538",
"z c #340922",
"x c #5A172C",
"c c #631D2A",
"v c #C05C2D",
"b c #3C061A",
"n c #52192F",
"m c #E4EBE9",
"M c #FBFADD",
"N c #EFD095",
"B c #555168",
"V c #4C475B",
"C c #5A5765",
"Z c #F0D49D",
"A c #CB9D78",
"S c #C69475",
"D c #4B4152",
"F c #5F1F34",
"G c #4F1932",
"H c white",
/* pixels */
"                                                                ",
"                                                                ",
"                                                                ",
"                                                                ",
"                                                                ",
"                                                                ",
"                                                                ",
"                                                                ",
"                                                                ",
"                          . X                                   ",
"                           Xo   .                               ",
"                         O XoX                                  ",
"                        .  XooX      O                          ",
"                            XoX     .XO                         ",
"                           X..oX    X                           ",
"                           Xo.oX                                ",
"                           XoO.oX  X                            ",
"                          Xo.OOoXX XX                           ",
"                          XoO+O.oXXXX                           ",
"                         Xo.O++OO.ooX                           ",
"                         XoOO@+@@O.oX                           ",
"                         X.O@++++@O.oX                          ",
"                        X..O@++++@O.oX                          ",
"                      O XoOOO@++++@O.oX                         ",
"                      .  Xo.O@++++@OOoX                         ",
"                         Xo.O@+++@@O..X                         ",
"                        Xo.O@+++@@O.oX                          ",
"                        Xo.OO@@+@OO.oX                          ",
"                         Xo.OO++O..oX                           ",
"                          XooO@OooXX                            ",
"                          XXXXXXXXX                             ",
"                        #$%&&&&&%%$#                            ",
"                        #**$%&$$%**#                            ",
"                         ###########                            ",
"                         #=-;::;>-=#                            ",
"                         #,<1-2-1,=#                            ",
"                         ###21-2<###                            ",
"                          #=3=453=#                             ",
"                           #######                              ",
"                           #67879#                              ",
"                           #07qwe#                              ",
"                            #####                               ",
"                            #rrt#                               ",
"                            #yui#                               ",
"                            #pas#                               ",
"                            #dfg#                               ",
"                            #hjk#                               ",
"                            #lzx#                               ",
"                            #cvb#                               ",
"                            #cvn#                               ",
"                           #mMNBV#                              ",
"                           #CZASD#                              ",
"                           ##FFG##                              ",
"                            ##F##                               ",
"                             ###                                ",
"                                                                ",
"                                                                ",
"                                                                ",
"                                                                ",
"                                                                ",
"                                                                ",
"                                                                ",
"                                                                ",
"                                                                "
};
