/* XPM */
static char *_bb5a07984e74d4fd342fe2bf22d1f2fDeV7W0CQNowv3adS[] = {
/* columns rows colors chars-per-pixel */
"64 64 68 1 ",
"  c None",
". c #ED4C11",
"X c #130215",
"o c #FD5F0C",
"O c #CC342E",
"+ c #FF8000",
"@ c #FF8601",
"# c #FFCE38",
"$ c #FEF9ED",
"% c #130217",
"& c #C1987A",
"* c #F4E3A2",
"= c #F8F8DA",
"- c #4D4358",
"; c #5B1932",
": c #1E0417",
"> c #C05539",
", c #6A2533",
"< c #66142F",
"1 c #7B2C37",
"2 c #CD5827",
"3 c #F9A93A",
"4 c #B85733",
"5 c #170416",
"6 c #F2B85D",
"7 c #DF9834",
"8 c #ECE3AD",
"9 c #D09E6F",
"0 c #5A4F5A",
"q c #574B64",
"w c #544F61",
"e c #D39D78",
"r c #584F62",
"t c #433950",
"y c #632034",
"u c #3E081F",
"i c #FAB831",
"p c #B6552C",
"a c #892E31",
"s c #B1542B",
"d c #621D33",
"f c #3F0B20",
"g c #D17724",
"h c #B8542B",
"j c #140115",
"k c #F6B448",
"l c #B34F2C",
"z c #5F1A2D",
"x c #6D2538",
"c c #340922",
"v c #5A172C",
"b c #631D2A",
"n c #C05C2D",
"m c #3C061A",
"M c #52192F",
"N c #E4EBE9",
"B c #FBFADD",
"V c #EFD095",
"C c #555168",
"Z c #4C475B",
"A c #5A5765",
"S c #F0D49D",
"D c #CB9D78",
"F c #C69475",
"G c #4B4152",
"H c #5F1F34",
"J c #4F1932",
"K c white",
/* pixels */
"                                                                ",
"                                                                ",
"                                                                ",
"                                                                ",
"                                                                ",
"                                                                ",
"                                                                ",
"                                                                ",
"                                                                ",
"                                      .                         ",
"                                   X                            ",
"                               o   OX                           ",
"                              +   XOX                           ",
"                                  X.X                           ",
"                            XX   XO.X                           ",
"                             o   XOX    +                       ",
"                              X XX.@X  ++                       ",
"                             XXXOO@@.X                          ",
"                           XXXOO..@@OX  X                       ",
"                          XOOO.@@@#@.OX                         ",
"                          XO.@#####..OX                         ",
"                         XX@@##$$##.OX  X                       ",
"                         X@@##$$$$#.OX XX                       ",
"                        XO@##$$$$$#OX  +                        ",
"                        XO##$$$$#@@OX                           ",
"                        X.#$$$$#@@@@OX                          ",
"                        X.@$@$$$$@#@OXX                         ",
"                        X..#@#$$$$#.OX                          ",
"                         X.@@####$.OX                           ",
"                          X.@###OOXX                            ",
"                          XXXXXXXXX                             ",
"                        %&*=====**&%                            ",
"                        %--&*=&&*--%                            ",
"                         %%%%%%%%%%%                            ",
"                         %;:>,,><:;%                            ",
"                         %123:4:31;%                            ",
"                         %%%43:42%%%                            ",
"                          %;5;675;%                             ",
"                           %%%%%%%                              ",
"                           %8909q%                              ",
"                           %w9ert%                              ",
"                            %%%%%                               ",
"                            %yyu%                               ",
"                            %ipa%                               ",
"                            %sdf%                               ",
"                            %ghj%                               ",
"                            %klz%                               ",
"                            %xcv%                               ",
"                            %bnm%                               ",
"                            %bnM%                               ",
"                           %NBVCZ%                              ",
"                           %ASDFG%                              ",
"                           %%HHJ%%                              ",
"                            %%H%%                               ",
"                             %%%                                ",
"                                                                ",
"                                                                ",
"                                                                ",
"                                                                ",
"                                                                ",
"                                                                ",
"                                                                ",
"                                                                ",
"                                                                "
};
