/* XPM */
static char *f06b06a6a7b442d6eb10dc1eb2fa4ed1UQ4mDCjsODIhOmbS[] = {
/* columns rows colors chars-per-pixel */
"32 32 17 1 ",
"  c #433119",
". c #4D381C",
"X c #5E352D",
"o c #4D401F",
"O c #664839",
"+ c #78652B",
"@ c #595652",
"# c #736244",
"$ c #7A6E58",
"% c #916A3B",
"& c #85755C",
"* c #948465",
"= c #9A8B6E",
"- c #A1957A",
"; c #C5A260",
": c #C3C1A2",
"> c #C7C5A7",
/* pixels */
" >-=-=*** >-=-=******= >-=-=****",
"o-&&&&&&$o-&&&&&&&&&&$o-&&&&&&&&",
"o=&&&&&&$o=&&&&&&&&&&$o=&&&&%&&&",
"o-&$&$&$%o-&&&$&&$&$&%o-&&$&$&&$",
"o=%$&$%+%o=&%&$&$%$&%+o=$&&$%$%$",
".*+%%%+++.*&+%$%$+%%++.*$%%%+%+%",
"..o.oo.o. .o.oooooooo. .oooo.o..",
"&#O#:-=*=*#X&:-=-=*=**#X:;-===**",
"&$#:;*&&&&&O:==*&&&&&$$O;=&&&$&$",
"$#O-*&$&$$#O-=*&&$&$#$#OO&&$$$$#",
"##O=*&&$$##O=*&&$&$#$#@OoO@$#$##",
"OOo*&&$$#$#O*&&&&$$$#$#OooOoOOOO",
"&Oo&&$$#$#@OO&&&$$$#$#@XO:;-===*",
"$#Oo&&$$#@@ooO#&&$###@oO=-=*&&&&",
"#$#$oO@O***-=$O##@#@@ooO&=*&$&$$",
"$#$#Oo#;-=*&$#$OoooOO-=$OO&&$$$#",
"###Oo#:;=*&&&$###o;:-*&&$#O&$$#$",
"@OOoO*;=*&&$#$#$#O:-*&&$##OOO#@#",
"-=*&O&=*&&&&$#$#@O-*&&$#$@O:=*&&",
"&&&#O$&&$#$##$#@Oo*&&$#$#O:=-***",
"$#$##OO$$$$$$#@OooO##&$##O=*&&&&",
"$$#$##ooO####OO=&OoOO$##@o*&$&$$",
"$###@@*-=OooO-=&&$$OooOOoooO###$",
"##@@*-=***o;==&$$$#@oO=-==**OOO#",
"**;-=*&&&&O=&&$$$#@OO;*&&&&&$#@@",
";=*&&$&$$$#O$##@OOOo:*&&$$#$##O:",
"=*&&$$$$#$#@oOOO#=*O=&&$$#$##@o;",
"OO###&$#$#@OO#-=*&&$OO$###@OOooo",
":;OOOO###@o#;=*&&&&&$oOOOOO#-=*@",
";==*=$OOoo#:**&&&$$$$OoO#-=*&&&@",
"*$$&&$#$#o;=*&&&$$$###o#;*&&$#$O",
"*&$$$####O=*&&&$$$#$##O:*&&$#$#o"
};
